**ABCDEFGHIJKLMNOPQRSTUVWXYZabcdefghijklmnopqrstuvwxyz**************************
**PARASOLID !"#$%&'()*+,-./:;<=>?@[\]^_`{|}~0123456789**************************
**PART1;
MC=AMD64;
MC_MODEL=Intel64 Family 6 Model 142 Stepping 10, GenuineIntel;
MC_ID=unknown;
OS=Windows_NT;
OS_RELEASE=unknown;
FRU=Parasolid Version 30.0, build 298, 12-15-2017;
APPL=SOLIDWORKS 2018-2018056;
SITE=;
USER=unknown;
FORMAT=text;
GUISE=transmit;
KEY=encaixe oblicuo cama quente;
FILE=encaixe oblicuo cama quente.x_t;
DATE=Tue May 29 23:28:27 2018;
**PART2;
SCH=SCH_3000298_30000;
USFLD_SIZE=0;
**PART3;
**END_OF_HEADER*****************************************************************
T51 : TRANSMIT FILE created by modeller version 300029823 SCH_3000298_30000_1300
6205 0 12 33 CCCCCCI4 mesh1006 0 I8 polyline1008 0 CCCCCCCDI5 owner1040 0 CCCCCC
I13 boundary_mesh1006 0 I17 boundary_polyline1008 0 CCCA16 index_map_offset0 0 1
 dA9 index_map82 0 A17 node_id_index_map82 0 A20 schema_embedding_map82 0 A5 chi
ld12 0 A14 lowest_node_id0 0 1 dZ1 728 0 2 0 0 0 0 0 0 1e3 1e-8 0 3 0 1 0 1 1 4
 5 6 7 0 0 8 9 10 0 0 0 0 0 0 70 11 CI9 list_type0 0 1 uI10 notransmit0 0 1 lCCC
DCCDI12 finger_index0 0 1 dI12 finger_block1012 0 CZ2 0 4 T1 0 0 2 20 1 11 11 13
 255 4 154 0 1 0 12 0 0 13 0 51 255 5 576 0 14 15 0 0 +.005 .01461225412454646 .
03 0 0 -1 .005 -1 0 0 31 255 6 555 0 9 16 0 0 -.005 .01461225412454646 .03 0 0 -
1 -1 0 0 .005 29 255 7 547 0 10 17 0 .001464466094067256 .0181477880304792 .03 1
9 8 CCCCCCCA5 owner12 0 Z8 46 0 1 13 0 18 V0 16 255 9 553 0 ?19 0 20 6 0 0 1 18
 255 10 545 0 21 0 22 7 ?1 17 255 21 0 23 24 25 10 26 20 0 27 +18 22 537 0 28 10
 29 17 ?1 17 28 0 30 31 32 22 33 34 0 25 +18 29 529 0 19 22 35 36 ?1 29 17 539 0
 22 36 7 .001464466094067256 .0181477880304792 0 29 36 531 0 29 37 17 -160892869
3292555e-34 .01461225412454646 .03 29 37 528 0 35 38 36 -1608928693292555e-34 .0
1461225412454646 0 18 35 526 0 33 29 39 37 ?1 29 38 256 0 39 40 37 .006729499407
80852 .02021050059219145 .03 18 39 254 0 41 35 42 38 ?1 29 40 248 0 42 43 38 .01
58988396239855 .0110411603760145 .03 18 42 246 0 44 39 45 40 ?1 29 43 235 0 45 4
6 40 .0158988396239855 .0110411603760145 0 18 45 233 0 47 42 48 43 ?1 29 46 232
 0 48 49 43 .00672949940780852 .02021050059219145 0 18 48 230 0 50 45 51 46 ?1 2
9 49 219 0 51 52 46 .00651674409925826 .0189268734335767 .03 18 51 217 0 53 48 5
4 49 ?1 29 52 216 0 54 55 49 .01461521246537076 .01082840506746424 .03 18 54 214
 0 56 51 57 52 ?1 29 55 213 0 57 58 52 .00651674409925826 .0189268734335767 0 18
 57 211 0 59 54 60 55 ?1 29 58 210 0 60 61 55 .01461521246537076 .01082840506746
424 0 18 60 208 0 62 57 63 58 ?1 29 61 113 0 64 65 58 .00512833903179401 .021811
66096820595 0 18 64 98 0 66 67 68 61 ?1 29 65 116 0 68 69 61 .0175 .00944 0 18 6
8 101 0 70 64 71 65 ?1 29 69 117 0 71 72 65 .0175 0 0 18 71 102 0 73 68 74 69 ?1
 29 72 118 0 74 75 69 0 0 0 18 74 103 0 76 71 0 72 ?1 29 75 42 0 63 77 72 .00512
833903179401 .02181166096820595 .03 18 63 40 0 78 60 79 75 ?1 29 77 33 0 79 80 7
5 .0175 .00944 .03 18 79 31 0 81 63 82 77 ?1 29 80 30 0 82 83 77 .0175 0 .03 18
 82 28 0 84 79 67 80 ?1 29 83 27 0 67 0 80 0 0 .03 18 67 25 0 85 82 64 83 ?1 17
 85 0 86 84 19 67 87 88 0 89 +15 255 86 3 0 27 90 0 17 84 0 86 81 85 82 89 91 0
 92 +17 19 0 86 85 27 29 93 9 0 87 +17 87 0 94 95 96 29 85 88 0 97 -16 88 530 0
 ?85 91 98 99 0 0 1 17 89 0 100 101 92 67 84 91 0 96 -15 100 136 0 73 102 0 17 1
01 0 100 73 89 74 96 103 0 0 +17 92 0 100 89 73 82 104 105 0 106 -16 91 7 0 ?84
 107 88 108 0 0 1 17 96 0 94 87 76 67 101 103 0 0 -15 94 138 0 87 109 0 17 76 0
 94 96 95 74 32 110 0 111 +16 103 125 0 ?101 112 105 113 0 0 1 16 112 220 0 ?53
 114 103 115 0 0 1 16 105 124 0 ?104 103 116 117 0 0 1 30 255 113 153 0 103 117
 115 0 +0 0 .03 0 0 -1 30 117 152 0 105 118 113 0 +.0175 0 .03 0 0 -1 30 115 222
 0 112 113 119 0 -.00651674409925826 .0189268734335767 .03 0 0 -1 30 119 227 0 1
14 115 120 0 +.01461521246537076 .01082840506746424 .03 0 0 -1 16 114 225 0 ?121
 122 112 119 0 0 1 31 120 238 0 122 119 123 0 +.00616381398285928 .0196448151672
422 0 0 0 -1 -1 0 0 8e-4 16 122 236 0 ?59 124 114 120 0 0 1 31 123 243 0 124 120
 125 0 +.01533315419903625 .01047547495106526 0 0 0 -1 -1 0 0 8e-4 16 124 241 0
 ?47 126 122 123 0 0 1 30 125 251 0 126 123 127 0 -.0158988396239855 .0110411603
760145 .03 0 0 -1 16 126 249 0 ?44 128 124 125 0 0 1 31 127 259 0 128 125 129 0
 -.00616381398285928 .0196448151672422 .03 0 0 -1 -1 0 0 8e-4 16 128 257 0 ?41 1
30 126 127 0 0 1 31 129 264 0 130 127 131 0 -.01533315419903625 .010475474951065
26 .03 0 0 -1 -1 0 0 8e-4 16 130 262 0 ?56 132 128 129 0 0 1 30 131 269 0 132 12
9 133 0 +.00672949940780852 .02021050059219145 .03 0 0 -1 16 132 267 0 ?134 135
 130 131 0 0 1 38 12 CCCCCCCCCCCA17 intersection_data204 0 Z133 336 0 136 131 13
7 0 +138 139 140 141 141 142 16 136 370 0 ?143 144 145 133 0 0 1 38 137 342 0 14
4 133 146 0 +138 147 148 149 149 150 51 138 142 0 12 151 152 153 +.0091857781045
255 .01349743907273146 .03 0 0 -1 .00605 -1 0 0 51 139 397 0 154 155 156 157 -.0
0887549528494813 .00382840506746424 .025 0 1 0 .003 0 0 1 40 255 21 140 0 1 21 .
000217867260429124 .388298973907179 ??.00887549528494813 .00745540095866142 .028
 .00979724160467624 .00747841818989816 .0278548876899219 .01061976756755652 .007
61983971415691 .02744080195921835 .01129849501345738 .00782831857103869 .0267689
18402766 .0117549497643588 .00802004398178638 .02584186810190305 .01187111091138
994 .00807604739564545 .02483786728085415 .01168358016881174 .00798713192633324
 .02394422574145005 .01123543276193886 .00780521492172127 .0231477864311331 .010
49490512276322 .00759077449362085 .02247462640839265 .00953628683562368 .0074576
0102610936 .0220736790117016 .00857566539179137 .00747828111851892 .022015020597
1951 .00770954019573925 .00763030845916384 .02223584574780135 .00693046364609397
 .00788352273085482 .02271595710989125 .00628422865185513 .00818862463128521 .02
348826681050565 .00591796108295941 .00840589000456342 .02449701745152845 .005910
13174206399 .00841092347675688 .02545455369158505 .00615136026152608 .0082634340
7138816 .02625661783138925 .00663735731811385 .00801035865639118 .02699768326854
255 .0074325179516526 .0077070523122164 .0276301742177269 .00844434288948647 .00
749304286479348 .02796885628009975 .00887549528494813 .00745540095866142 .028 41
 3 CI8 term_use0 0 1 cCZ1 141 H?.00887549528494813 .00745540095866142 .028 204 2
 17 INTERSECTION_DATA17 Intersection data7 uv_type0 0 1 u6 values0 1 1 fT84 142
 4 4.76369790657762 .002 0 .00362699589119718 4.61114777180754 .0021451123100780
8 .3123006077990865 .00365001312243392 4.47308854798554 .00255919804078165 .6204
77958402981 .003791434646692675 4.355661719066295 .00323108159723402 .9401839464
74041 .00399991350357445 4.27380656807609 .00415813189809697 1.286353509677098 .
004191638914322135 4.252491030613435 .00516213271914585 1.62486690970345 .004247
64232818121 4.28679719893395 .00605577425854995 1.930422935340685 .0041587268588
69 4.366762800113845 .00685221356886689 2.236235318188855 .003976809854257035 4.
494279141314565 .00752537359160733 2.571389254726335 .003762369426156605 4.65442
119387081 .00792632098829841 2.919507697894735 .00362919595864512 4.813405771725
77 .00798497940280492 3.241703086977825 .003649876051054675 4.95888383336648 .00
776415425219865 3.540760449044685 .0038019033916996 5.09439134451212 .0072840428
9010874 3.84699982153214 .004055117663390575 5.21258203479679 .00651173318949437
 4.18426817960824 .004360219563820975 5.28298654772989 .00550298254847153 4.5439
3252964547 .00457748493709918 5.28452502083052 .00454544630841493 4.864492699821
23 .00458251840929264 5.23778617630163 .003743382168610775 5.14459238750897 .004
43502900392392 5.14718628712522 .00300231673145743 5.44108104223839 .00418195358
8926945 5.0064016895474 .0023698257822731 5.78139895491399 .003878647244752165 4
.83524911005729 .002031143719900255 6.13896844583718 .003664637797329245 4.76369
790657762 .002 6.28318530717959 .00362699589119718 14 255 154 377 158 ?159 160 1
61 4 139 +0 0 159 160 18 50 255 155 399 0 159 147 139 0 +.00887549528494813 .003
82840506746424 .025 0 -1 0 0 0 -1 50 156 2 0 90 139 162 0 +.0091857781045255 .01
349743907273146 .03 0 0 -1 -1 0 0 141 255 157 133 157 157 139 14 90 1 163 ?164 1
65 86 4 156 -0 0 164 165 18 50 162 104 0 164 156 166 0 +.0091857781045255 .01349
743907273146 0 0 0 -1 -1 0 0 14 164 67 167 ?168 90 30 4 162 +0 0 168 90 18 50 16
6 140 0 165 162 151 0 +.00512833903179401 .02181166096820595 .03 .70710678118654
9 -.707106781186546 0 .707106781186546 .707106781186549 0 14 165 127 169 ?90 170
 23 4 166 -0 0 90 170 18 50 151 141 0 170 166 138 0 +.00760321276594693 .0193367
8723405305 .03 -.707106781186547 -.707106781186549 0 .707106781186549 -.70710678
1186547 0 14 170 129 171 ?165 172 173 4 151 -0 0 165 172 18 81 255 1 171 715 174
 170 175 0 169 176 177 14 172 133 176 ?170 178 179 4 152 -0 0 170 178 18 15 173
 128 0 180 170 0 13 18 47 0 0 0 0 0 0 8 12 14 12 343 181 ?109 0 182 4 138 -0 0 1
09 0 18 81 1 181 717 174 12 183 0 176 184 185 14 109 139 184 ?102 12 94 4 186 -0
 0 102 12 18 15 182 130 0 187 12 188 17 187 0 182 121 53 54 189 190 0 191 -15 18
8 335 0 192 12 193 17 192 0 188 192 192 0 143 136 0 0 -15 193 341 0 194 12 0 17
 194 0 193 194 194 0 195 144 0 0 -17 195 0 196 195 195 0 194 144 0 0 +16 144 346
 0 ?195 110 136 137 0 0 1 16 110 527 0 ?76 197 144 198 0 0 1 16 197 89 0 ?73 199
 110 200 0 0 1 30 198 111 0 110 201 200 0 +-1836970198721025e-34 .01668332193641
195 0 1101081790378794e-32 -1 0 30 201 23 0 202 203 198 0 +.00512833903179401 .0
2181166096820595 .03 -.707106781186546 -.707106781186549 0 30 200 110 0 197 198
 204 0 +0 0 0 1 0 0 30 204 109 0 199 200 205 0 +.0175 0 0 0 1 0 16 199 85 0 ?70
 206 197 204 0 0 1 30 205 108 0 206 204 207 0 +.0175 .00944 0 -.707106781186548
 .707106781186547 0 16 206 81 0 ?208 209 199 205 0 0 1 31 207 107 0 209 205 210
 0 +.0091857781045255 .01349743907273146 0 0 0 -1 -1 0 0 .00605 16 209 209 0 ?21
1 212 206 207 0 0 1 30 210 106 0 212 207 213 0 +.00760321276594693 .019336787234
05305 0 -.707106781186549 .707106781186547 0 16 212 231 0 ?66 98 209 210 0 0 1 3
0 213 105 0 98 210 214 0 +.00512833903179401 .02181166096820595 0 -.707106781186
546 -.707106781186549 0 16 98 69 0 ?25 88 212 213 0 0 1 30 214 148 0 215 213 118
 0 +.00512833903179401 .02181166096820595 .03 0 0 -1 16 215 120 0 ?216 116 202 2
14 0 0 1 30 118 151 0 116 214 117 0 +.0175 .00944 .03 0 0 -1 16 116 123 0 ?217 1
05 215 118 0 0 1 17 217 0 179 208 218 68 219 116 0 220 +15 179 132 0 208 172 0 1
7 208 0 179 44 217 45 220 206 0 221 +17 218 0 179 217 44 79 222 223 0 0 -17 219
 0 224 106 70 79 217 116 0 218 -17 220 0 30 225 47 68 208 206 0 0 -15 30 68 0 32
 164 0 17 225 0 30 111 220 71 70 199 0 0 -17 47 0 30 220 226 45 62 124 0 208 +17
 226 0 30 47 59 60 211 209 0 0 -17 62 0 227 191 221 60 47 124 0 121 -15 227 282
 0 228 168 0 17 191 0 227 228 62 54 121 114 0 0 -17 221 0 227 62 228 45 44 126 0
 0 -17 121 0 182 211 187 60 191 114 0 226 +17 211 0 182 53 121 57 226 209 0 229
 +17 53 0 182 187 211 51 229 112 0 189 +17 229 0 230 50 231 57 53 112 0 0 -15 23
0 303 0 231 160 0 17 50 0 230 232 229 48 59 122 0 134 -17 231 0 230 229 232 51 4
1 128 0 0 -17 232 0 230 231 50 39 134 132 0 0 -17 41 0 86 78 189 39 231 128 0 18
0 +17 78 0 86 27 41 63 180 233 0 234 +17 189 0 86 41 56 51 187 190 0 231 +17 180
 0 173 134 234 39 78 233 0 232 -17 134 0 173 66 180 48 232 132 0 235 +17 234 0 1
73 180 66 63 216 215 0 24 -16 233 255 0 ?78 202 190 203 0 0 1 16 202 22 0 ?27 21
5 233 201 0 0 1 16 190 215 0 ?189 233 223 236 0 0 1 30 203 20 0 233 236 201 0 +.
00760321276594693 .01933678723405305 .03 -.707106781186549 .707106781186547 0 31
 236 17 0 190 237 203 0 +.0091857781045255 .01349743907273146 .03 0 0 -1 -1 0 0
 .00605 30 237 14 0 223 238 236 0 +.0175 .00944 .03 -.707106781186548 .707106781
186547 0 16 223 13 0 ?222 190 107 237 0 0 1 30 238 11 0 107 108 237 0 +.0175 0 .
03 0 1 0 16 107 10 0 ?81 223 91 238 0 0 1 30 108 8 0 91 99 238 0 +0 0 .03 1 0 0
 30 99 5 0 88 239 108 0 +-1836970198721025e-34 .01668332193641195 .03 1101081790
378794e-32 -1 0 31 239 404 0 240 241 99 0 +.00887549528494813 .00382840506746424
 .025 0 -1 0 0 0 -1 .003 16 240 374 0 ?242 145 243 239 0 0 1 31 241 406 0 145 24
4 239 0 +.00887549528494813 .00382840506746424 .005 0 -1 0 0 0 -1 .003 16 145 35
0 0 ?245 136 240 241 0 0 1 31 244 507 0 246 247 241 0 +.00887549528494813 0 .025
 0 -1 0 0 0 -1 .00155 16 246 477 0 ?248 249 0 244 0 0 1 31 247 509 0 249 0 244 0
 +.00887549528494813 0 .005 0 -1 0 0 0 -1 .00155 16 249 453 0 ?250 251 246 247 0
 0 1 17 250 0 252 250 250 0 253 249 0 0 +16 251 449 0 ?254 243 249 146 0 0 1 17
 254 0 255 254 254 0 256 251 0 0 +16 243 473 0 ?257 240 251 258 0 0 1 31 146 427
 0 251 137 258 0 -.00887549528494813 .00382840506746424 .005 0 -1 0 0 0 -1 .0015
5 31 258 433 0 243 146 259 0 -.00887549528494813 .00382840506746424 .025 0 -1 0
 0 0 -1 .00155 30 259 534 0 135 258 260 0 +-1608928693292555e-34 .01461225412454
646 .03 0 0 -1 16 135 532 0 ?95 34 132 259 0 0 1 31 260 542 0 34 259 16 0 +.005
 .01461225412454646 0 0 0 -1 -1 0 0 .005 16 34 540 0 ?28 20 135 260 0 0 1 30 16
 550 0 20 260 6 0 -.001464466094067256 .0181477880304792 .03 0 0 -1 16 20 548 0
 ?21 9 34 16 0 0 1 17 95 0 94 76 87 35 97 135 0 32 +17 97 0 261 93 33 29 95 135
 0 0 -17 32 0 30 28 111 35 76 110 0 0 -17 111 0 30 32 225 74 73 197 0 101 -17 73
 0 100 92 101 71 111 197 0 104 +17 104 0 224 70 106 71 92 105 0 225 +15 224 134
 0 70 178 0 17 70 0 224 219 104 68 225 199 0 217 +17 106 0 224 104 219 82 81 107
 0 0 -17 81 0 86 222 84 79 106 107 0 219 +17 222 0 86 56 81 42 218 223 0 228 +17
 56 0 86 189 222 54 228 130 0 187 +17 228 0 227 221 191 42 56 130 0 0 -14 178 13
5 262 ?172 102 224 4 263 -0 0 172 102 18 81 1 262 719 174 178 264 0 184 265 266
 14 102 137 265 ?178 109 267 4 268 -0 0 178 109 18 50 263 144 0 178 152 268 0 +.
0175 0 .03 -1 0 0 0 0 1 50 152 143 0 172 138 263 0 +.0175 .00944 .03 -.707106781
186547 -.707106781186548 0 .707106781186548 -.707106781186547 0 50 268 145 0 102
 263 186 0 +0 0 .03 0 1 0 0 0 1 50 186 146 0 109 268 269 0 +-1836970198721025e-3
4 .01668332193641195 .03 1 1101081790378794e-32 0 -1101081790378794e-32 1 0 51 2
69 293 0 168 186 15 0 +.01533315419903625 .01047547495106526 .03 0 0 -1 8e-4 -1
 0 0 14 168 281 270 ?160 164 227 4 269 +0 0 160 164 18 51 15 314 0 160 269 5 0 +
.00616381398285928 .0196448151672422 .03 0 0 -1 8e-4 -1 0 0 14 160 302 271 ?154
 168 230 4 15 +0 0 154 168 18 81 1 271 722 174 160 272 0 270 273 274 80 255 1 17
4 275 276 9000 1 1 1 1 1 1 1 1 0 FFFFTFTFFFFFFF1 81 1 272 665 277 160 0 271 278
 279 280 81 1 270 721 174 168 278 0 265 271 281 81 1 273 723 174 159 282 0 271 2
83 284 82 255 1 274 -842792786 14 159 387 273 ?285 154 286 4 155 -0 0 285 154 18
 81 1 282 667 277 159 0 273 279 287 288 81 1 283 724 174 285 287 0 273 289 290 8
2 1 284 -1073282873 14 285 353 283 ?291 159 292 4 147 +0 0 291 159 18 81 1 287 6
68 277 285 0 283 282 293 294 81 1 289 725 174 291 293 0 283 295 296 82 1 290 -10
67515707 14 291 363 289 ?297 285 298 4 299 -0 0 297 285 18 81 1 293 669 277 291
 0 289 287 300 301 81 1 295 726 174 297 300 0 289 302 303 82 1 296 -1077411641 1
4 297 456 295 ?304 291 252 4 305 +0 0 304 291 18 81 1 300 670 277 297 0 295 293
 306 307 81 1 302 727 174 304 306 0 295 308 309 82 1 303 -1050541881 14 304 480
 302 ?14 297 310 4 311 +0 0 14 297 18 81 1 306 671 277 304 0 302 300 312 313 81
 1 308 728 174 14 312 0 302 0 314 82 1 309 -1049493305 14 14 564 308 ?0 304 261
 4 5 +0 0 0 304 18 81 1 312 672 277 14 0 308 306 0 315 82 1 314 -1044774712 80 1
 277 0 316 8001 0 0 0 0 3 5 0 0 0 FFFFTFTFFFFFFF2 83 255 3 315 .694117647058824
 .0980392156862745 .0980392156862745 79 255 15 316 SDL/TYSA_COLOUR15 261 565 0 9
3 14 0 17 93 0 261 26 97 10 19 9 0 0 -17 26 0 261 33 93 22 21 20 0 0 -17 33 0 26
1 97 26 35 28 34 0 95 -83 3 313 .694117647058824 .0980392156862745 .098039215686
2745 15 310 483 0 248 304 317 51 311 500 0 304 305 299 0 -.00887549528494813 0 .
025 0 1 0 .00155 0 0 1 51 305 503 0 297 0 311 0 -.00887549528494813 0 .005 0 1 0
 .00155 0 0 1 50 299 402 0 291 311 147 0 +.00887549528494813 .00382840506746424
 .005 0 -1 0 0 0 -1 51 147 400 0 285 299 155 318 -.00887549528494813 .0038284050
6746424 .005 0 1 0 .003 0 0 1 141 318 137 318 318 147 17 248 0 310 248 248 0 319
 246 0 0 +15 317 484 0 257 304 0 17 257 0 317 257 257 0 320 243 0 0 +17 320 0 28
6 320 320 0 257 243 0 0 -15 286 432 0 320 159 321 15 321 389 0 322 159 0 17 322
 0 321 322 322 0 242 240 0 0 -17 242 0 161 242 242 0 322 240 0 0 +15 161 380 0 2
42 154 323 15 323 381 0 143 154 0 17 143 0 323 143 143 0 192 136 0 0 +17 319 0 3
24 319 319 0 248 246 0 0 -15 324 438 0 319 102 100 83 3 307 .694117647058824 .09
80392156862745 .0980392156862745 15 252 459 0 250 297 255 15 255 460 0 254 297 0
 83 3 301 .694117647058824 .0980392156862745 .0980392156862745 15 298 426 0 256
 291 325 17 256 0 298 256 256 0 254 251 0 0 -15 325 365 0 326 291 0 17 326 0 325
 326 326 0 245 145 0 0 -17 245 0 292 245 245 0 326 145 0 0 +15 292 356 0 245 285
 196 15 196 357 0 195 285 0 83 3 294 .694117647058824 .0980392156862745 .0980392
156862745 81 1 279 666 277 154 0 158 272 282 327 83 3 288 .694117647058824 .0980
392156862745 .0980392156862745 81 1 158 711 174 154 279 0 0 163 328 83 3 327 .69
4117647058824 .0980392156862745 .0980392156862745 81 1 163 712 174 90 329 0 158
 167 330 82 1 328 -1068039995 81 1 329 662 277 90 0 163 331 332 333 81 1 167 713
 174 164 332 0 163 169 334 82 1 330 -1939930936 81 1 332 663 277 164 0 167 329 2
78 335 81 1 169 714 174 165 331 0 167 171 336 82 1 334 -1939799864 81 1 331 661
 277 165 0 169 175 329 337 82 1 336 -1939668792 81 1 175 660 277 170 0 171 338 3
31 339 83 3 337 .694117647058824 .0980392156862745 .0980392156862745 81 1 338 65
9 277 172 0 176 264 175 340 83 3 339 .694117647058824 .0980392156862745 .0980392
156862745 81 1 176 716 174 172 338 0 171 181 341 81 1 264 658 277 178 0 262 342
 338 343 83 3 340 .694117647058824 .0980392156862745 .0980392156862745 81 1 342
 657 277 102 0 265 344 264 345 83 3 343 .694117647058824 .0980392156862745 .0980
392156862745 81 1 265 720 174 102 342 0 262 270 346 81 1 344 656 277 109 0 184 1
83 342 347 83 3 345 .694117647058824 .0980392156862745 .0980392156862745 81 1 18
4 718 174 109 344 0 181 262 348 81 1 183 655 277 12 0 181 0 344 349 83 3 347 .69
4117647058824 .0980392156862745 .0980392156862745 83 3 349 .694117647058824 .098
0392156862745 .0980392156862745 82 1 348 -1939078968 82 1 346 -1932394297 82 1 3
41 -853213010 81 1 278 664 277 168 0 270 332 272 350 83 3 335 .694117647058824 .
0980392156862745 .0980392156862745 83 3 350 .694117647058824 .0980392156862745 .
0980392156862745 83 3 333 .694117647058824 .0980392156862745 .0980392156862745 8
2 1 281 -844758866 83 3 280 .694117647058824 .0980392156862745 .0980392156862745
 79 14 276 SWEntUnchanged15 267 444 0 253 102 324 17 253 0 267 253 253 0 250 249
 0 0 -82 1 266 -852950867 17 27 0 86 19 78 10 24 202 0 93 +17 24 0 23 216 21 63
 27 202 0 0 -15 23 126 0 25 165 0 17 216 0 23 25 24 64 234 215 0 31 +17 25 0 23
 21 216 22 31 98 0 26 +17 31 0 30 235 28 64 25 98 0 0 -17 235 0 30 59 31 48 66 2
12 0 0 -17 59 0 30 226 235 57 50 122 0 211 +17 66 0 173 234 134 64 235 212 0 216
 +17 44 0 179 218 208 42 221 126 0 222 +82 1 185 -1068498747 82 1 177 -853737298
 141 153 133 351 351 138 141 351 137 153 153 138 40 21 148 0 1 21 .0002178672604
291255 .3882989739071805 ??.00887549528494813 .00745540095866142 .008 .009797241
60467624 .00747841818989816 .00785488768992192 .01061976756755652 .0076198397141
5691 .00744080195921835 .01129849501345738 .00782831857103869 .00676891840276598
 .0117549497643588 .00802004398178638 .00584186810190303 .01187111091138994 .008
07604739564545 .00483786728085415 .01168358016881174 .00798713192633324 .0039442
2574145005 .01123543276193886 .00780521492172127 .00314778643113311 .01049490512
276322 .00759077449362085 .002474626408392665 .00953628683562368 .00745760102610
936 .002073679011701585 .00857566539179138 .00747828111851891 .00201502059719508
 .00770954019573925 .00763030845916384 .002235845747801345 .00693046364609397 .0
0788352273085482 .00271595710989126 .00628422865185513 .00818862463128521 .00348
826681050562 .00591796108295941 .00840589000456342 .004497017451528465 .00591013
174206399 .00841092347675688 .00545455369158507 .00615136026152608 .008263434071
38816 .00625661783138922 .00663735731811385 .00801035865639118 .0069976832685425
7 .0074325179516526 .00770705231221641 .0076301742177269 .00844434288948646 .007
49304286479348 .00796885628009974 .00887549528494813 .00745540095866142 .008 41
 1 149 H?.00887549528494813 .00745540095866142 .008 204 84 150 4 4.7636979065776
2 .022 0 .00362699589119718 4.61114777180754 .0221451123100781 .3123006077990865
 .00365001312243392 4.47308854798554 .02255919804078165 .620477958402981 .003791
434646692675 4.355661719066295 .02323108159723405 .940183946474042 .003999913503
57445 4.27380656807609 .02415813189809695 1.286353509677098 .004191638914322135
 4.252491030613435 .02516213271914585 1.62486690970345 .00424764232818121 4.2867
9719893395 .02605577425854995 1.930422935340685 .004158726858869 4.3667628001138
45 .0268522135688669 2.236235318188855 .003976809854257035 4.494279141314565 .02
752537359160735 2.57138925472634 .003762369426156605 4.65442119387081 .027926320
9882984 2.919507697894735 .00362919595864512 4.81340577172577 .0279849794028049
 3.241703086977825 .003649876051054675 4.95888383336648 .02776415425219865 3.540
760449044685 .0038019033916996 5.09439134451212 .02728404289010875 3.84699982153
214 .004055117663390575 5.21258203479679 .0265117331894944 4.18426817960824 .004
360219563820975 5.28298654772989 .02550298254847155 4.54393252964547 .0045774849
3709918 5.28452502083052 .02454544630841495 4.86449269982123 .00458251840929264
 5.23778617630163 .0237433821686108 5.14459238750897 .00443502900392392 5.147186
28712522 .02300231673145745 5.44108104223839 .004181953588926945 5.0064016895474
 .0223698257822731 5.78139895491399 .003878647244752165 4.83524911005729 .022031
14371990025 6.13896844583718 .003664637797329245 4.76369790657762 .022 6.2831853
0717959 .00362699589119718 19 13 155 0 1 0 8 4 S0 74 4 CI16 index_map_offset0 0
 1 dCCZ20 11 2 0 0 308 312 0 0 0 0 0 0 0 0 0 0 0 0 0 0 0 0 0 0 1 0 
